<svg xmlns="http://www.w3.org/2000/svg" version="1.1" xmlns:xlink="http://www.w3.org/1999/xlink" width="1000" height="1000"><g clip-path="url(#SvgjsClipPath1204)"><rect width="1000" height="1000" fill="#000000"></rect><g transform="matrix(15.625,0,0,15.625,0,0)"><svg xmlns="http://www.w3.org/2000/svg" viewBox="0 0 64 64" width="64" height="64"><defs>
    <linearGradient id="bg2" x1="0%" y1="0%" x2="100%" y2="100%">
      <stop offset="0%" stop-color="#1a1a2e"></stop>
      <stop offset="100%" stop-color="#0f0f1e"></stop>
    </linearGradient>
    <linearGradient id="bolt2" x1="0%" y1="0%" x2="100%" y2="100%">
      <stop offset="0%" stop-color="#f59e0b"></stop>
      <stop offset="100%" stop-color="#ef4444"></stop>
    </linearGradient>
  <clipPath id="SvgjsClipPath1204"><rect width="1000" height="1000" x="0" y="0" rx="500" ry="500"></rect></clipPath></defs><rect width="64" height="64" rx="12" fill="url(#bg2)"></rect><line x1="4" y1="20" x2="22" y2="20" stroke="#f59e0b" stroke-width="1.5" opacity="0.3" stroke-linecap="round"></line><line x1="4" y1="32" x2="18" y2="32" stroke="#f59e0b" stroke-width="1.5" opacity="0.2" stroke-linecap="round"></line><line x1="4" y1="44" x2="20" y2="44" stroke="#f59e0b" stroke-width="1.5" opacity="0.3" stroke-linecap="round"></line><polygon points="36,8 24,34 31,34 28,56 44,28 36,28" fill="url(#bolt2)"></polygon><rect x="40" y="36" width="18" height="18" rx="4" fill="none" stroke="#ffffff" stroke-width="1.5" opacity="0.6"></rect><circle cx="44" cy="40" r="1.5" fill="#ffffff" opacity="0.6"></circle><circle cx="54" cy="40" r="1.5" fill="#ffffff" opacity="0.6"></circle><circle cx="49" cy="45" r="1.5" fill="#ffffff" opacity="0.6"></circle><circle cx="44" cy="50" r="1.5" fill="#ffffff" opacity="0.6"></circle><circle cx="54" cy="50" r="1.5" fill="#ffffff" opacity="0.6"></circle></svg></g></g></svg>